<?xml version="1.0" encoding="UTF-8"?>
<svg id="Master_Logos" data-name="Master Logos" xmlns="http://www.w3.org/2000/svg" viewBox="0 0 2506.83 1958.85">
  <g>
    <path d="M951.58,1114.87l-299.06-299.06c-65.93-65.93-65.93-172.83,0-238.77l299.06-299.06c15.83-15.83,37.3-24.72,59.69-24.72h302.94s-95.53,143.3-95.53,143.3c-15.66,23.48-42.01,37.59-70.24,37.59h-47.26c-31.98,0-62.66,12.71-85.27,35.32h0c-125.35,125.35-125.35,328.58,0,453.92h0c22.62,22.62,53.29,35.32,85.27,35.32h71.33c11.66,0,21.1,9.45,21.1,21.1v159.79h-182.35c-22.39,0-43.86-8.89-59.69-24.72Z"/>
    <path d="M1193.62,1199.89l95.54-143.3c15.66-23.48,42.01-37.59,70.24-37.59h47.26c31.98,0,62.66-12.71,85.27-35.32h0c125.35-125.35,125.35-328.57,0-453.92h0c-22.62-22.62-53.29-35.32-85.27-35.32h-213.03s95.53-143.3,95.53-143.3c15.66-23.48,42.01-37.59,70.24-37.59h137.17c22.39,0,43.86,8.89,59.69,24.73l299.06,299.06c65.93,65.93,65.93,172.83,0,238.77l-299.07,299.07c-15.83,15.83-37.3,24.72-59.69,24.72h-302.94Z"/>
    <path d="M1387.58,726.59c0,74.69-64.63,134.26-141.03,125.83-57.93-6.39-105.03-53.49-111.42-111.42-8.43-76.4,51.14-141.04,125.83-141.04,14.83,0,29.06,2.53,42.21,7.12v35.09c0,23.31,18.9,42.21,42.21,42.21h35.09c4.58,13.15,7.11,27.38,7.11,42.21Z"/>
  </g>
  <g>
    <path d="M361.83,1705.6h-42.93c-20.74,0-36.76-5.51-48.05-16.55-11.29-11.02-16.94-26.91-16.94-47.65v-124.86c0-20.74,5.64-36.63,16.94-47.66,11.29-11.02,27.3-16.53,48.05-16.53h42.93c20.48,0,36.43,5.51,47.86,16.53,11.42,11.03,17.13,26.92,17.13,47.66v27.18h-41.75c-5.51,0-8.27-2.89-8.27-8.66v-16.15c0-8.41-1.77-14.38-5.32-17.92-3.54-3.54-9.52-5.32-17.92-5.32h-26.78c-8.14,0-13.98,1.77-17.52,5.32-3.54,3.54-5.32,9.52-5.32,17.92v120.12c0,8.14,1.77,14.05,5.32,17.72,3.54,3.68,9.38,5.51,17.52,5.51h26.78c8.4,0,14.38-1.83,17.92-5.51,3.54-3.67,5.32-9.59,5.32-17.72v-16.15c0-5.77,2.76-8.67,8.27-8.67h33.48c4.57,0,8.27,3.7,8.27,8.27v18.91c0,20.74-5.71,36.63-17.13,47.65-11.42,11.03-27.38,16.55-47.86,16.55Z"/>
    <path d="M647.15,1452.35l-76.18,160.69v84.28c0,4.57-3.7,8.27-8.27,8.27h-33.48c-4.57,0-8.27-3.7-8.27-8.27v-84.29l-76.18-160.69h51.37c2.62,0,4.59.65,5.91,1.97,1.31,1.32,2.5,3.42,3.54,6.3l40.78,99.09,39.96-99.09c1.84-5.51,4.99-8.27,9.46-8.27h51.37Z"/>
    <path d="M673.38,1701.26v-248.91h102.79c20.74,0,36.76,5.45,48.06,16.34,11.28,10.9,16.94,26.72,16.94,47.46v16.15c0,11.02-2.7,20.22-8.07,27.57-5.39,7.35-13.07,12.6-23.04,15.75,6.56.79,12.47,2.89,17.72,6.31,5.25,3.42,9.38,8.07,12.41,13.98,3.01,5.91,4.53,13.33,4.53,22.25v23.63c0,20.75-5.65,36.57-16.94,47.46-11.29,10.9-27.18,16.35-47.66,16.35h-102.4c-2.39,0-4.33-1.94-4.33-4.33ZM767.9,1555.14c8.4,0,14.57-1.77,18.51-5.32,3.94-3.54,5.91-9.39,5.91-17.52v-15.36c0-8.4-1.91-14.31-5.71-17.72-3.81-3.41-9.92-5.12-18.31-5.12h-44.91v56.71c0,2.39,1.94,4.33,4.33,4.33h40.18ZM771.84,1663.85c8.4,0,14.57-1.77,18.51-5.32s5.91-9.39,5.91-17.53v-22.84c0-8.13-1.97-13.91-5.91-17.33-3.94-3.41-10.38-5.12-19.3-5.12h-43.33c-2.39,0-4.33,1.94-4.33,4.33v59.47c0,2.39,1.94,4.33,4.33,4.33h44.12Z"/>
    <path d="M941.98,1495.67v55.53c0,2.9,1.58,4.33,4.73,4.33h67.35c4.57,0,8.27,3.7,8.27,8.27v26.79c0,4.57-3.7,8.27-8.27,8.27h-67.35c-3.15,0-4.73,1.44-4.73,4.33v54.74c0,2.9,1.58,4.33,4.73,4.33h82.32c5.25,0,7.87,2.76,7.87,8.27v26.79c0,5.51-2.63,8.27-7.87,8.27h-128.8c-4.57,0-8.27-3.7-8.27-8.27v-244.98h144.94v35.05c0,5.52-2.63,8.27-7.87,8.27h-87.05Z"/>
    <path d="M1080.62,1697.33v-244.98h105.56c20.48,0,36.43,5.51,47.85,16.53,11.42,11.03,17.14,26.92,17.14,47.66v124.86c0,20.74-5.71,36.63-17.14,47.65-11.42,11.03-27.37,16.55-47.85,16.55h-97.29c-4.57,0-8.27-3.7-8.27-8.27ZM1134.97,1662.27h42.93c8.4,0,14.37-1.83,17.92-5.51,3.54-3.67,5.32-9.59,5.32-17.72v-120.12c0-8.41-1.77-14.38-5.32-17.92-3.54-3.54-9.52-5.32-17.92-5.32h-47.27v162.27c0,2.39,1.94,4.33,4.33,4.33Z"/>
    <path d="M1348.44,1495.67v55.53c0,2.9,1.58,4.33,4.72,4.33h67.36c4.57,0,8.27,3.7,8.27,8.27v26.79c0,4.57-3.7,8.27-8.27,8.27h-67.36c-3.14,0-4.72,1.44-4.72,4.33v54.74c0,2.9,1.58,4.33,4.72,4.33h82.32c5.25,0,7.88,2.76,7.88,8.27v26.79c0,5.51-2.63,8.27-7.88,8.27h-128.79c-4.57,0-8.27-3.7-8.27-8.27v-244.98h144.94v35.05c0,5.52-2.63,8.27-7.88,8.27h-87.04Z"/>
    <path d="M1628.86,1487.4c0,5.52-2.61,8.27-7.87,8.27h-83.9v65.38c0,2.61,2.12,4.73,4.73,4.73h67.35c4.57,0,8.27,3.7,8.27,8.27v26.39c0,5.78-2.76,8.66-8.27,8.66h-67.34c-3.16,0-4.73,1.45-4.73,4.33v83.9c0,4.57-3.7,8.27-8.27,8.27h-33.48c-4.57,0-8.27-3.7-8.27-8.27v-244.98h141.78v35.05Z"/>
    <path d="M1714.34,1495.67v55.53c0,2.9,1.58,4.33,4.72,4.33h67.35c4.57,0,8.27,3.7,8.27,8.27v26.79c0,4.57-3.7,8.27-8.27,8.27h-67.35c-3.14,0-4.72,1.44-4.72,4.33v54.74c0,2.9,1.58,4.33,4.72,4.33h82.32c5.24,0,7.88,2.76,7.88,8.27v26.79c0,5.51-2.64,8.27-7.88,8.27h-128.8c-4.57,0-8.27-3.7-8.27-8.27v-244.98h144.95v35.05c0,5.52-2.64,8.27-7.88,8.27h-87.04Z"/>
    <path d="M1893.93,1705.6h-32.69c-4.57,0-8.27-3.7-8.27-8.27v-244.98h37.8c3.93,0,6.69.78,8.27,2.36,1.58,1.58,2.5,2.63,2.76,3.16l81.14,149.27h0v-154.78h49.23v244.98c0,4.57-3.7,8.27-8.27,8.27h-28.76c-4.19,0-7.28-1.24-9.26-3.75-1.95-2.48-3.09-3.87-3.34-4.13l-80.34-146.52v146.13c0,4.57-3.7,8.27-8.27,8.27Z"/>
    <path d="M2083.38,1697.33v-244.98h105.56c20.48,0,36.43,5.51,47.85,16.53,11.42,11.03,17.14,26.92,17.14,47.66v124.86c0,20.74-5.71,36.63-17.14,47.65-11.42,11.03-27.37,16.55-47.85,16.55h-97.29c-4.57,0-8.27-3.7-8.27-8.27ZM2137.73,1662.27h42.93c8.41,0,14.38-1.83,17.92-5.51,3.54-3.67,5.32-9.59,5.32-17.72v-120.12c0-8.41-1.78-14.38-5.32-17.92-3.54-3.54-9.52-5.32-17.92-5.32h-47.26v162.27c0,2.39,1.94,4.33,4.33,4.33Z"/>
  </g>
</svg>